<svg width="17" height="16" viewBox="0 0 17 16" fill="none" xmlns="http://www.w3.org/2000/svg">
<path fill-rule="evenodd" clip-rule="evenodd" d="M8.50555 0C6.33288 0 6.06022 0.0095 5.20688 0.0483333C4.35522 0.0873333 3.77388 0.222167 3.26522 0.42C2.73905 0.624333 2.29272 0.897667 1.84805 1.3425C1.40305 1.78717 1.12972 2.2335 0.924716 2.7595C0.726383 3.26833 0.591383 3.84983 0.553049 4.70117C0.514883 5.5545 0.504883 5.82733 0.504883 8C0.504883 10.1727 0.514549 10.4445 0.553216 11.2978C0.592383 12.1495 0.727216 12.7308 0.924883 13.2395C1.12938 13.7657 1.40272 14.212 1.84755 14.6567C2.29205 15.1017 2.73838 15.3757 3.26422 15.58C3.77322 15.7778 4.35472 15.9127 5.20622 15.9517C6.05955 15.9905 6.33205 16 8.50455 16C10.6774 16 10.9492 15.9905 11.8026 15.9517C12.6542 15.9127 13.2362 15.7778 13.7452 15.58C14.2712 15.3757 14.7169 15.1017 15.1614 14.6567C15.6064 14.212 15.8797 13.7657 16.0847 13.2397C16.2814 12.7308 16.4164 12.1493 16.4564 11.298C16.4947 10.4447 16.5047 10.1727 16.5047 8C16.5047 5.82733 16.4947 5.55467 16.4564 4.70133C16.4164 3.84967 16.2814 3.26833 16.0847 2.75967C15.8797 2.2335 15.6064 1.78717 15.1614 1.3425C14.7164 0.8975 14.2714 0.624167 13.7447 0.42C13.2347 0.222167 12.6531 0.0873333 11.8014 0.0483333C10.9481 0.0095 10.6764 0 8.50305 0H8.50555ZM7.78785 1.44164C8.00085 1.44131 8.23852 1.44164 8.50552 1.44164C10.6415 1.44164 10.8947 1.44931 11.7382 1.48764C12.5182 1.52331 12.9415 1.65364 13.2235 1.76314C13.5968 1.90814 13.863 2.08148 14.1428 2.36148C14.4228 2.64148 14.5962 2.90814 14.7415 3.28148C14.851 3.56314 14.9815 3.98648 15.017 4.76648C15.0553 5.60981 15.0637 5.86315 15.0637 7.99815C15.0637 10.1331 15.0553 10.3865 15.017 11.2298C14.9813 12.0098 14.851 12.4331 14.7415 12.7148C14.5965 13.0881 14.4228 13.354 14.1428 13.6338C13.8629 13.9138 13.597 14.0871 13.2235 14.2321C12.9418 14.3421 12.5182 14.4721 11.7382 14.5078C10.8948 14.5461 10.6415 14.5545 8.50552 14.5545C6.36935 14.5545 6.11618 14.5461 5.27285 14.5078C4.49285 14.4718 4.06952 14.3415 3.78735 14.232C3.41402 14.087 3.14735 13.9136 2.86735 13.6336C2.58735 13.3536 2.41402 13.0876 2.26868 12.7141C2.15918 12.4325 2.02868 12.0091 1.99318 11.2291C1.95485 10.3858 1.94718 10.1325 1.94718 7.99614C1.94718 5.85981 1.95485 5.60781 1.99318 4.76448C2.02885 3.98448 2.15918 3.56114 2.26868 3.27914C2.41368 2.90581 2.58735 2.63914 2.86735 2.35914C3.14735 2.07914 3.41402 1.90581 3.78735 1.76048C4.06935 1.65048 4.49285 1.52048 5.27285 1.48464C6.01085 1.45131 6.29685 1.44131 7.78785 1.43964V1.44164ZM12.7759 2.76998C12.2459 2.76998 11.8159 3.19948 11.8159 3.72965C11.8159 4.25965 12.2459 4.68965 12.7759 4.68965C13.3059 4.68965 13.7359 4.25965 13.7359 3.72965C13.7359 3.19965 13.3059 2.76998 12.7759 2.76998ZM8.50556 3.89165C6.23673 3.89165 4.39723 5.73114 4.39723 7.99998C4.39723 10.2688 6.23673 12.1075 8.50556 12.1075C10.7744 12.1075 12.6132 10.2688 12.6132 7.99998C12.6132 5.73114 10.7744 3.89165 8.50556 3.89165ZM8.50553 5.33331C9.9782 5.33331 11.1722 6.52714 11.1722 7.99998C11.1722 9.47264 9.9782 10.6666 8.50553 10.6666C7.0327 10.6666 5.83887 9.47264 5.83887 7.99998C5.83887 6.52714 7.0327 5.33331 8.50553 5.33331Z" fill="#151515"/>
</svg>
